PathFileType	4	(X/Y/Z)	c:/Users/goper/Files/vsCode/490R/osim_files/A04/A04_SSWS_02.trc
DataRate	CameraRate	NumFrames	NumMarkers	Units                	OrigDataRate	OrigDataStartFrame	OrigNumFrames
120.00	120.00	4	36	mm	120.0	742	1186
                Frame#	Time	LPSIS			LASIS			LTH1			LTH2			LTH3			LTH4			LLFE			LMFE			LSH1			LSH2			LSH3			LSH4			LLMAL			LMMAL			LCAL			LMTP5			LTOE			LMTP1			RPSIS			RASIS			RTH1			RTH2			RTH3			RTH4			RLFE			RMFE			RSH1			RSH2			RSH3			RSH4			RLMAL			RMMAL			RCAL			RMTP1			RTOE			RMTP5		
		X1	Y1	Z1	X2	Y2	Z2	X3	Y3	Z3	X4	Y4	Z4	X5	Y5	Z5	X6	Y6	Z6	X7	Y7	Z7	X8	Y8	Z8	X9	Y9	Z9	X10	Y10	Z10	X11	Y11	Z11	X12	Y12	Z12	X13	Y13	Z13	X14	Y14	Z14	X15	Y15	Z15	X16	Y16	Z16	X17	Y17	Z17	X18	Y18	Z18	X19	Y19	Z19	X20	Y20	Z20	X21	Y21	Z21	X22	Y22	Z22	X23	Y23	Z23	X24	Y24	Z24	X25	Y25	Z25	X26	Y26	Z26	X27	Y27	Z27	X28	Y28	Z28	X29	Y29	Z29	X30	Y30	Z30	X31	Y31	Z31	X32	Y32	Z32	X33	Y33	Z33	X34	Y34	Z34	X35	Y35	Z35	X36	Y36	Z36

742	6.17500	-3158.39185	1058.52710	330.32324	-3368.08887	1010.22052	448.25864	-3267.11816	661.32947	427.14597	-3269.70605	616.81262	421.36191	-3327.61719	663.05707	432.28979	-3323.91553	618.47778	427.03027	-3296.15015	526.31970	401.95248	-3328.58179	541.44452	266.02612	-3257.61621	427.13315	387.11414	-3262.11133	384.16574	380.51337	-3319.02515	425.88651	383.40573	-3315.15698	384.53156	376.27313	-3226.96558	112.50408	299.03586	-3258.00659	119.12881	217.80113	-3172.99512	72.44087	234.76041	-3363.75171	64.96535	348.09702	-3421.60864	83.94972	296.86276	0.00000	0.00000	0.00000	-3172.20703	1049.56702	224.15437	-3409.50000	1033.82080	168.00456	0.00000	0.00000	0.00000	-3491.09619	717.42584	137.58209	-3515.87524	785.50049	134.27400	0.00000	0.00000	0.00000	0.00000	0.00000	0.00000	-3593.87573	626.41809	295.50153	-3583.71484	392.13376	195.10852	0.00000	0.00000	0.00000	-3647.32202	398.84344	199.89821	-3648.17236	351.63428	208.28711	0.00000	0.00000	0.00000	-3652.32495	181.09587	358.34534	-3578.78711	100.60667	296.01260	-3791.98901	151.78300	359.22049	-3815.97192	176.84174	315.03030	-3800.70483	137.34178	242.62920
743	6.18333	-3165.64746	1057.57605	332.34390	-3375.56982	1009.91699	449.20297	-3271.83691	661.33942	428.34616	-3274.20020	616.67114	422.61926	-3332.37695	662.50897	433.44061	-3328.25244	617.99908	428.12152	-3299.71411	525.91150	403.01175	-3332.33569	541.01733	267.06671	-3260.36475	427.06412	387.92239	-3264.66162	384.09164	381.28537	-3323.35571	426.21768	384.78290	-3316.37158	383.90643	375.96887	-3227.21167	112.50910	298.89938	-3258.33423	119.34006	217.90115	-3173.12451	72.70796	234.78386	-3363.85571	64.84464	348.14893	-3421.72095	83.73223	296.93015	-3409.79907	69.37166	250.29059	-3179.19775	1048.35205	226.19296	-3416.35327	1032.75232	168.69788	0.00000	0.00000	0.00000	-3494.26001	712.89679	140.25639	-3519.64209	780.82483	135.52443	0.00000	0.00000	0.00000	0.00000	0.00000	0.00000	-3597.82080	623.18549	298.96130	0.00000	0.00000	0.00000	0.00000	0.00000	0.00000	-3650.51611	394.00360	206.58273	-3651.98511	346.91562	215.93916	0.00000	0.00000	0.00000	-3661.15869	179.92462	368.90094	-3586.93188	97.39338	311.06046	-3801.39673	151.62181	367.13065	-3823.98901	175.83034	321.76260	-3807.63013	135.36679	250.73618
744	6.19167	-3173.04761	1056.52722	334.40671	-3383.60864	1009.72522	450.13632	-3276.76318	661.25806	429.70560	-3278.52222	616.61401	423.79034	-3337.35913	662.02820	434.62918	-3332.79224	617.44794	429.27979	-3302.85156	525.72845	403.56332	-3336.35327	540.70160	268.23975	-3263.24121	427.07571	389.64398	-3267.23389	383.97946	382.02899	-3324.63086	425.13028	385.08502	-3318.90137	383.45166	376.65997	-3227.47559	112.69881	299.10849	-3258.56396	119.56631	217.99541	-3173.33691	72.96603	234.89995	-3363.93970	64.70921	348.18030	-3421.93164	83.50868	297.05872	-3409.85840	69.11519	250.30202	-3186.18213	1046.68042	228.44460	-3423.38965	1031.63184	169.41794	0.00000	0.00000	0.00000	-3497.50781	708.45575	143.06107	-3523.40454	776.11047	136.84653	0.00000	0.00000	0.00000	0.00000	0.00000	0.00000	-3601.69531	619.83203	302.36124	0.00000	0.00000	0.00000	0.00000	0.00000	0.00000	-3652.77075	388.88483	213.31352	-3654.97314	342.07687	223.59045	0.00000	0.00000	0.00000	-3669.38062	178.71703	379.95441	0.00000	0.00000	0.00000	-3809.43872	150.80853	374.70834	-3830.53149	173.98264	328.07236	-3812.76123	132.56187	258.58560
745	6.20000	-3180.41089	1055.53491	336.58817	-3393.51807	1010.00854	451.61758	0.00000	0.00000	0.00000	-3283.14233	616.37268	425.21713	-3342.36475	661.39435	435.86276	-3337.46436	616.84174	430.57214	-3306.66724	525.21051	404.70132	-3340.27173	540.21234	269.45581	-3266.56396	427.37018	390.71851	-3269.71387	384.14960	382.44992	-3329.33984	425.36984	386.62155	-3321.63647	382.84366	377.54971	-3227.81006	112.88497	299.33139	-3259.02319	120.03170	218.08835	-3173.38525	73.43670	234.91176	-3364.10107	64.57898	348.22000	-3420.99707	82.14781	293.93893	-3409.02051	67.47469	247.62032	-3193.25244	1045.30176	230.67595	-3430.34937	1030.36597	170.08955	0.00000	0.00000	0.00000	-3500.65039	703.93207	145.93565	-3526.91040	771.25684	138.23392	0.00000	0.00000	0.00000	0.00000	0.00000	0.00000	-3605.60522	616.40527	305.81268	0.00000	0.00000	0.00000	0.00000	0.00000	0.00000	-3654.27466	383.61258	219.97784	-3656.90991	336.93604	231.20839	0.00000	0.00000	0.00000	-3675.82227	176.80670	390.22763	0.00000	0.00000	0.00000	-3816.07617	149.24640	381.78946	-3835.77637	171.42410	334.09332	-3816.28979	128.94620	266.09833
